# xmcd
#
# Track frame offsets:
#	150
#	9511
#	19815
#	29771
#	41135
#	55740
#	68843
#	80673
#	94705
#	104466
#	116707
#	127666
#	139532
#	155772
#	167280
#	178567
#	202186
#	222434
#	242413
#	257911
#	278473
#	291596
#	303646
#
# Disc length: 4300 seconds
#
# Revision: 1
# Processed by: cddbd v1.5.2PL0 Copyright (c) Steve Scherf et al.
# Submitted via: audiograbber 1.83.01
#
DISCID=4d10ca17
DTITLE=Creedence Clearwater Revival - Creedence Clearwater Revival
DYEAR=2002
DGENRE=Country
TTITLE0=Ooby Dooby
TTITLE1=Bad Moon Rising
TTITLE2=Hello Mary Lou
TTITLE3=Green River
TTITLE4=A Hundred And Ten In The Shade
TTITLE5=Cotton Fields
TTITLE6=Molina
TTITLE7=Proud Mary
TTITLE8=Blue Moon Nigths
TTITLE9=Down On The Corner
TTITLE10=Who'll Stop The Rain
TTITLE11=Have You Ever Seen The Rain
TTITLE12=Penthouse Pauper
TTITLE13=Hearts Of Stone
TTITLE14=Lookin' Out My Back Door
TTITLE15=Born On The Bayou
TTITLE16=I Put A Spell On You
TTITLE17=Today I Started Loving You Again
TTITLE18=Before You Accuse Me
TTITLE19=Susie Q
TTITLE20=It Came Out On The Sky
TTITLE21=Up Around The Bend
TTITLE22=The Midnight Special
EXTD=
EXTT0=
EXTT1=
EXTT2=
EXTT3=
EXTT4=
EXTT5=
EXTT6=
EXTT7=
EXTT8=
EXTT9=
EXTT10=
EXTT11=
EXTT12=
EXTT13=
EXTT14=
EXTT15=
EXTT16=
EXTT17=
EXTT18=
EXTT19=
EXTT20=
EXTT21=
EXTT22=
PLAYORDER=
